# xmcd
#
# Track frame offsets: 
#        150
#        11745
#        25262
#        40767
#        56550
#        67880
#        80877
#        93567
#        107972
#        123900
#        138775
#        150397
#
# Disc length: 2260 seconds
#
# Revision: 2
# Processed by: cddbd v1.5.1PL2 Copyright (c) Steve Scherf et al.
# Submitted via: ExactAudioCopy v0.95b3
#
DISCID=9608d20c
DTITLE=Chris LeDoux - Best Of
DYEAR=1994
DGENRE=
TTITLE0=Whatcha Gonna Do With A Cowboy (Duet with Garth Brooks)
TTITLE1=County Fair
TTITLE2=For Your Love
TTITLE3=Riding For A Fall
TTITLE4=Under This Old Hat
TTITLE5=Cadillac Ranch
TTITLE6=Workin' Man's Dollar
TTITLE7=Look At You Girl
TTITLE8=Hooked On An 8 Second Ride
TTITLE9=Cadillac Cowboy
TTITLE10=Everytime I Roll The Dice
TTITLE11=This Cowboy's Hat
EXTD=
EXTT0=
EXTT1=
EXTT2=
EXTT3=
EXTT4=
EXTT5=
EXTT6=
EXTT7=
EXTT8=
EXTT9=
EXTT10=
EXTT11=
PLAYORDER=
